<svg width="135" height="135" viewBox="0 0 135 135" fill="none" xmlns="http://www.w3.org/2000/svg">
<path fill-rule="evenodd" clip-rule="evenodd" d="M67.5 108C89.8675 108 108 89.8675 108 67.5C108 45.1325 89.8675 27 67.5 27C45.1325 27 27 45.1325 27 67.5C27 89.8675 45.1325 108 67.5 108ZM67.5 99.5C85.1731 99.5 99.5 85.1731 99.5 67.5C99.5 49.8269 85.1731 35.5 67.5 35.5C49.8269 35.5 35.5 49.8269 35.5 67.5C35.5 85.1731 49.8269 99.5 67.5 99.5Z" fill="black"/>
<path d="M44.5 44.5L70 64.5L64.5 70L44.5 44.5Z" fill="black"/>
<circle cx="67.5" cy="67.5" r="4.5" fill="black"/>
</svg>
